<svg width="16" height="16" viewBox="0 0 16 16" fill="none" xmlns="http://www.w3.org/2000/svg">
<path fill-rule="evenodd" clip-rule="evenodd" d="M0.666667 1.33333C0.298477 1.33333 0 1.63181 0 2C0 2.36819 0.298477 2.66667 0.666667 2.66667H15.3333C15.7015 2.66667 16 2.36819 16 2C16 1.63181 15.7015 1.33333 15.3333 1.33333H0.666667ZM0.666667 5.33333C0.298477 5.33333 0 5.63181 0 6C0 6.36819 0.298477 6.66667 0.666667 6.66667H8.66667C9.03486 6.66667 9.33333 6.36819 9.33333 6C9.33333 5.63181 9.03486 5.33333 8.66667 5.33333H0.666667ZM0 10C0 9.63181 0.298477 9.33333 0.666667 9.33333H15.3333C15.7015 9.33333 16 9.63181 16 10C16 10.3682 15.7015 10.6667 15.3333 10.6667H0.666667C0.298477 10.6667 0 10.3682 0 10ZM0.666667 13.3333C0.298477 13.3333 0 13.6318 0 14C0 14.3682 0.298477 14.6667 0.666667 14.6667H8.66667C9.03486 14.6667 9.33333 14.3682 9.33333 14C9.33333 13.6318 9.03486 13.3333 8.66667 13.3333H0.666667Z" fill="#202327"/>
</svg>
