<svg width="16" height="16" viewBox="0 0 16 16" fill="none" xmlns="http://www.w3.org/2000/svg">
<path fill-rule="evenodd" clip-rule="evenodd" d="M0.666667 1.33333C0.298477 1.33333 0 1.63181 0 2C0 2.36819 0.298477 2.66667 0.666667 2.66667H15.3333C15.7015 2.66667 16 2.36819 16 2C16 1.63181 15.7015 1.33333 15.3333 1.33333H0.666667ZM4 5.33333C3.63181 5.33333 3.33333 5.63181 3.33333 6C3.33333 6.36819 3.63181 6.66667 4 6.66667H12C12.3682 6.66667 12.6667 6.36819 12.6667 6C12.6667 5.63181 12.3682 5.33333 12 5.33333H4ZM0 10C0 9.63181 0.298477 9.33333 0.666667 9.33333H15.3333C15.7015 9.33333 16 9.63181 16 10C16 10.3682 15.7015 10.6667 15.3333 10.6667H0.666667C0.298477 10.6667 0 10.3682 0 10ZM4 13.3333C3.63181 13.3333 3.33333 13.6318 3.33333 14C3.33333 14.3682 3.63181 14.6667 4 14.6667H12C12.3682 14.6667 12.6667 14.3682 12.6667 14C12.6667 13.6318 12.3682 13.3333 12 13.3333H4Z" fill="#202327"/>
</svg>
