<svg width="16" height="16" viewBox="0 0 16 16" fill="none" xmlns="http://www.w3.org/2000/svg">
<path fill-rule="evenodd" clip-rule="evenodd" d="M1.33337 0.666667C1.33337 0.298477 1.63185 0 2.00004 0H3.33337H9.33337C11.5425 0 13.3334 1.79086 13.3334 4C13.3334 5.23282 12.7757 6.33537 11.8988 7.06913C13.5298 7.79647 14.6667 9.43213 14.6667 11.3333C14.6667 13.9107 12.5774 16 10 16H2.00004C1.63185 16 1.33337 15.7015 1.33337 15.3333C1.33337 14.9651 1.63185 14.6667 2.00004 14.6667H2.66671V7.33333V1.33333H2.00004C1.63185 1.33333 1.33337 1.03486 1.33337 0.666667ZM4.00004 6.66667H9.33337C10.8061 6.66667 12 5.47276 12 4C12 2.52724 10.8061 1.33333 9.33337 1.33333H4.00004V6.66667ZM4.00004 8V14.6667H10C11.841 14.6667 13.3334 13.1743 13.3334 11.3333C13.3334 9.49238 11.841 8 10 8H9.33337H4.00004Z" fill="#202327"/>
</svg>
