<svg width="16" height="16" viewBox="0 0 16 16" fill="none" xmlns="http://www.w3.org/2000/svg">
<path fill-rule="evenodd" clip-rule="evenodd" d="M0.666687 5.33333C0.666687 4.22876 1.56212 3.33333 2.66669 3.33333H13.3334C14.4379 3.33333 15.3334 4.22876 15.3334 5.33333V10.6667C15.3334 11.7712 14.4379 12.6667 13.3334 12.6667H2.66669C1.56212 12.6667 0.666687 11.7712 0.666687 10.6667V5.33333ZM2.66669 4.66667C2.2985 4.66667 2.00002 4.96514 2.00002 5.33333V10.6667C2.00002 11.0349 2.2985 11.3333 2.66669 11.3333H13.3334C13.7015 11.3333 14 11.0349 14 10.6667V5.33333C14 4.96514 13.7015 4.66667 13.3334 4.66667H2.66669Z" fill="black"/>
</svg>
