<svg width="14" height="14" viewBox="0 0 14 14" fill="none" xmlns="http://www.w3.org/2000/svg">
<path fill-rule="evenodd" clip-rule="evenodd" d="M1.90909 1.27273C1.55764 1.27273 1.27273 1.55764 1.27273 1.90909V12.0909C1.27273 12.4424 1.55764 12.7273 1.90909 12.7273H12.0909C12.4424 12.7273 12.7273 12.4424 12.7273 12.0909V1.90909C12.7273 1.55764 12.4424 1.27273 12.0909 1.27273H1.90909ZM0 1.90909C0 0.854729 0.854729 0 1.90909 0H12.0909C13.1453 0 14 0.854729 14 1.90909V12.0909C14 13.1453 13.1453 14 12.0909 14H1.90909C0.854729 14 0 13.1453 0 12.0909V1.90909Z" fill="#202327"/>
</svg>
