<svg width="16" height="16" viewBox="0 0 16 16" fill="none" xmlns="http://www.w3.org/2000/svg">
<path fill-rule="evenodd" clip-rule="evenodd" d="M2.18182 1.45455C1.78016 1.45455 1.45455 1.78016 1.45455 2.18182V13.8182C1.45455 14.2198 1.78016 14.5455 2.18182 14.5455H13.8182C14.2198 14.5455 14.5455 14.2198 14.5455 13.8182V2.18182C14.5455 1.78016 14.2198 1.45455 13.8182 1.45455H2.18182ZM0 2.18182C0 0.976833 0.976833 0 2.18182 0H13.8182C15.0232 0 16 0.976833 16 2.18182V13.8182C16 15.0232 15.0232 16 13.8182 16H2.18182C0.976833 16 0 15.0232 0 13.8182V2.18182Z" fill="#202327"/>
</svg>
