<svg width="16" height="16" viewBox="0 0 16 16" fill="none" xmlns="http://www.w3.org/2000/svg">
<path fill-rule="evenodd" clip-rule="evenodd" d="M3.29999 3.97C3.29999 3.79231 3.37058 3.62189 3.49623 3.49624C3.62188 3.37059 3.79229 3.3 3.96999 3.3C4.05751 3.29999 4.14416 3.31739 4.22489 3.35118C4.30562 3.38497 4.37883 3.43448 4.44025 3.49683C4.50167 3.55918 4.55007 3.63313 4.58265 3.71436C4.61522 3.79559 4.63131 3.88249 4.62999 3.97V7.3H11.31V3.97C11.3087 3.88249 11.3248 3.79559 11.3573 3.71436C11.3899 3.63313 11.4383 3.55918 11.4997 3.49683C11.5611 3.43448 11.6344 3.38497 11.7151 3.35118C11.7958 3.31739 11.8825 3.29999 11.97 3.3C12.1477 3.3 12.3181 3.37059 12.4437 3.49624C12.5694 3.62189 12.64 3.79231 12.64 3.97V11.97C12.64 12.1477 12.5694 12.3181 12.4437 12.4438C12.3181 12.5694 12.1477 12.64 11.97 12.64C11.8825 12.64 11.7958 12.6226 11.7151 12.5888C11.6344 12.555 11.5611 12.5055 11.4997 12.4432C11.4383 12.3808 11.3899 12.3069 11.3573 12.2256C11.3248 12.1444 11.3087 12.0575 11.31 11.97V8.64H4.62999V11.97C4.63131 12.0575 4.61522 12.1444 4.58265 12.2256C4.55007 12.3069 4.50167 12.3808 4.44025 12.4432C4.37883 12.5055 4.30562 12.555 4.22489 12.5888C4.14416 12.6226 4.05751 12.64 3.96999 12.64C3.79229 12.64 3.62188 12.5694 3.49623 12.4438C3.37058 12.3181 3.29999 12.1477 3.29999 11.97V3.97Z" fill="#202327"/>
</svg>
