<svg width="16" height="16" viewBox="0 0 16 16" fill="none" xmlns="http://www.w3.org/2000/svg">
<path d="M0 12H16V16H0V12Z" fill="#D9D9D9" class="tox-icon-highlight-bg-color__color"/>
<path fill-rule="evenodd" clip-rule="evenodd" d="M15.1 5.2L11.1 1.2C10.8 0.899998 10.4 0.899998 10.2 1.2L2.2 9.2C1.9 9.5 1.9 9.9 2.2 10.1L3.1 11L0.9 13.2C0.7 13.4 0.7 13.6 0.7 13.8C0.8 14 0.9 14.2 1.1 14.3L3.1 15C3.3 15.1 3.6 15 3.8 14.8L5.3 13.3L6.2 14.2C6.5 14.5 6.9 14.5 7.1 14.2L15.1 6.2C15.4 5.9 15.4 5.5 15.1 5.2ZM3.2 13.6L2.6 13.4L4 11.9L4.4 12.3L3.2 13.6ZM6.7 12.7L4.5 10.5L3.6 9.7L10.7 2.6L11.6 3.5L8 7L9.3 8.3L12.8 4.8L13.7 5.7L6.7 12.7Z" fill="#202327"/>
</svg>
