<svg width="16" height="16" viewBox="0 0 16 16" fill="none" xmlns="http://www.w3.org/2000/svg">
<path fill-rule="evenodd" clip-rule="evenodd" d="M15.1 5.2L11.1 1.2C10.8 0.899998 10.4 0.899998 10.2 1.2L2.20001 9.2C1.90001 9.5 1.90001 9.9 2.20001 10.1L3.10001 11L0.900012 13.2C0.700012 13.4 0.700012 13.6 0.700012 13.8C0.800012 14 0.900012 14.2 1.10001 14.3L3.10001 15C3.30001 15.1 3.60001 15 3.80001 14.8L5.30001 13.3L6.20001 14.2C6.50001 14.5 6.90001 14.5 7.10001 14.2L15.1 6.2C15.4 5.9 15.4 5.5 15.1 5.2ZM3.20001 13.6L2.60001 13.4L4.00001 11.9L4.40001 12.3L3.20001 13.6ZM6.70001 12.7L5.80001 11.8L4.50001 10.5L3.60001 9.7L10.7 2.6L11.6 3.5L8.00001 7L9.30001 8.3L12.8 4.8L13.7 5.7L6.70001 12.7Z" fill="#202327"/>
</svg>
