<svg width="16" height="16" viewBox="0 0 16 16" fill="none" xmlns="http://www.w3.org/2000/svg">
<path fill-rule="evenodd" clip-rule="evenodd" d="M1.33333 2.66667C1.33333 2.29848 1.63181 2 2 2C2.36819 2 2.66667 2.29848 2.66667 2.66667C2.66667 3.03486 2.36819 3.33333 2 3.33333C1.63181 3.33333 1.33333 3.03486 1.33333 2.66667ZM2 0.666668C0.895431 0.666668 0 1.5621 0 2.66667C0 3.77124 0.895431 4.66667 2 4.66667C3.10457 4.66667 4 3.77124 4 2.66667C4 1.5621 3.10457 0.666668 2 0.666668ZM1.33333 8C1.33333 7.63181 1.63181 7.33333 2 7.33333C2.36819 7.33333 2.66667 7.63181 2.66667 8C2.66667 8.36819 2.36819 8.66667 2 8.66667C1.63181 8.66667 1.33333 8.36819 1.33333 8ZM2 6C0.895431 6 0 6.89543 0 8C0 9.10457 0.895431 10 2 10C3.10457 10 4 9.10457 4 8C4 6.89543 3.10457 6 2 6ZM2 12.6667C1.63181 12.6667 1.33333 12.9651 1.33333 13.3333C1.33333 13.7015 1.63181 14 2 14C2.36819 14 2.66667 13.7015 2.66667 13.3333C2.66667 12.9651 2.36819 12.6667 2 12.6667ZM0 13.3333C0 12.2288 0.895431 11.3333 2 11.3333C3.10457 11.3333 4 12.2288 4 13.3333C4 14.4379 3.10457 15.3333 2 15.3333C0.895431 15.3333 0 14.4379 0 13.3333ZM6 2C5.63181 2 5.33333 2.29848 5.33333 2.66667C5.33333 3.03486 5.63181 3.33333 6 3.33333H15.3333C15.7015 3.33333 16 3.03486 16 2.66667C16 2.29848 15.7015 2 15.3333 2H6ZM5.33333 8C5.33333 7.63181 5.63181 7.33333 6 7.33333H15.3333C15.7015 7.33333 16 7.63181 16 8C16 8.36819 15.7015 8.66667 15.3333 8.66667H6C5.63181 8.66667 5.33333 8.36819 5.33333 8ZM6 12.6667C5.63181 12.6667 5.33333 12.9651 5.33333 13.3333C5.33333 13.7015 5.63181 14 6 14H15.3333C15.7015 14 16 13.7015 16 13.3333C16 12.9651 15.7015 12.6667 15.3333 12.6667H6Z" fill="#202327"/>
</svg>
