<svg width="16" height="16" viewBox="0 0 16 16" fill="none" xmlns="http://www.w3.org/2000/svg">
<path fill-rule="evenodd" clip-rule="evenodd" d="M1.03965 3.9209V4.39518L3.14641 4.39519V3.92091L2.65423 3.87891C2.56406 3.87305 2.5582 3.85515 2.5582 3.75912V0.938152H1.11777L1.05169 1.43034L1.57383 1.53841C1.63405 1.55631 1.65195 1.59245 1.65195 1.66439V3.75911C1.65195 3.84896 1.63991 3.87305 1.55593 3.87891L1.03965 3.9209ZM5.33335 2C4.96516 2 4.66669 2.29848 4.66669 2.66667C4.66669 3.03486 4.96516 3.33333 5.33335 3.33333H15.3334C15.7015 3.33333 16 3.03486 16 2.66667C16 2.29848 15.7015 2 15.3334 2H5.33335ZM5.33335 7.33333C4.96516 7.33333 4.66669 7.63181 4.66669 8C4.66669 8.36819 4.96516 8.66667 5.33335 8.66667H15.3334C15.7015 8.66667 16 8.36819 16 8C16 7.63181 15.7015 7.33333 15.3334 7.33333H5.33335ZM4.66669 13.3333C4.66669 12.9651 4.96516 12.6667 5.33335 12.6667H15.3334C15.7015 12.6667 16 12.9651 16 13.3333C16 13.7015 15.7015 14 15.3334 14H5.33335C4.96516 14 4.66669 13.7015 4.66669 13.3333ZM0.727642 9.77359V9.21533L1.532 8.4292L1.58505 8.37774C2.15322 7.82666 2.39626 7.59092 2.39626 7.25895C2.39626 7.03662 2.28819 6.87484 1.97016 6.87484C1.63975 6.87484 1.50173 6.98291 1.50173 7.40902L0.685649 7.33675C0.691509 6.38265 1.41775 6.2264 2.04796 6.2264C2.9783 6.2264 3.30837 6.62256 3.30837 7.18669C3.30837 7.74948 2.92069 8.12102 2.48411 8.53943L2.48024 8.54313L1.80186 9.19157H2.68435C2.74424 9.19157 2.76834 9.17952 2.78038 9.1193L2.86436 8.64534H3.50043V9.77359H0.727642ZM3.54551 14.1916C3.54551 13.6515 3.2636 13.3455 2.75319 13.2674V13.2433C3.13144 13.1294 3.44362 12.8114 3.44362 12.3071C3.44362 11.6649 3.08945 11.3107 2.1653 11.3107C1.53509 11.3107 0.820897 11.4728 0.820897 12.4211L1.64316 12.4933C1.64316 12.0672 1.79909 11.9592 2.12298 11.9592C2.45925 11.9592 2.56114 12.145 2.56114 12.3732C2.56114 12.7573 2.32709 12.9673 1.89512 13.0213L1.60085 13.0575V13.6574C1.78118 13.6274 1.89512 13.6154 2.04518 13.6154C2.41725 13.6154 2.64544 13.7655 2.64544 14.1317C2.64544 14.5519 2.35736 14.6717 2.0211 14.6717C1.60084 14.6717 1.3489 14.4979 1.1207 14.2759L0.640564 14.8039C0.946877 15.1401 1.48692 15.3559 2.09304 15.3559C2.95144 15.3559 3.54551 14.9839 3.54551 14.1916Z" fill="#202327"/>
</svg>
