<svg width="16" height="16" viewBox="0 0 16 16" fill="none" xmlns="http://www.w3.org/2000/svg">
<path fill-rule="evenodd" clip-rule="evenodd" d="M15.138 0.861934C15.2022 0.926118 15.2506 1.00013 15.2831 1.07913C15.3152 1.15713 15.3319 1.23998 15.3332 1.32303L15.3333 1.33447V6.66667C15.3333 7.03486 15.0348 7.33334 14.6666 7.33334C14.2984 7.33334 14 7.03486 14 6.66667V2.94281L7.8047 9.13808C7.54435 9.39843 7.12224 9.39843 6.86189 9.13808C6.60154 8.87773 6.60154 8.45562 6.86189 8.19527L13.0571 2.00001H9.33329C8.9651 2.00001 8.66663 1.70153 8.66663 1.33334C8.66663 0.965149 8.9651 0.666672 9.33329 0.666672H14.6665H14.6666C14.8372 0.666672 15.0079 0.731758 15.138 0.861934ZM1.33329 2C0.965103 2 0.666626 2.29848 0.666626 2.66667V14.6667C0.666626 15.0349 0.965103 15.3333 1.33329 15.3333H13.3333C13.7015 15.3333 14 15.0349 14 14.6667V10C14 9.63181 13.7015 9.33333 13.3333 9.33333C12.9651 9.33333 12.6666 9.63181 12.6666 10V14H1.99996V3.33333H5.99996C6.36815 3.33333 6.66663 3.03486 6.66663 2.66667C6.66663 2.29848 6.36815 2 5.99996 2H1.33329Z" fill="#202327"/>
</svg>
