<svg width="17" height="17" viewBox="0 0 17 17" fill="none" xmlns="http://www.w3.org/2000/svg">
<path fill-rule="evenodd" clip-rule="evenodd" d="M13.5034 4.56876C12.7646 4.56876 12.1656 5.16771 12.1656 5.90655C12.1656 6.64539 12.7646 7.24434 13.5034 7.24434C14.2423 7.24434 14.8412 6.64539 14.8412 5.90655C14.8412 5.16771 14.2423 4.56876 13.5034 4.56876ZM1.75309 6.69376H10.9001C11.2376 7.8116 12.2755 8.62559 13.5034 8.62559C15.0051 8.62559 16.2225 7.40824 16.2225 5.90655C16.2225 4.40487 15.0051 3.18751 13.5034 3.18751C12.2058 3.18751 11.1204 4.09652 10.8495 5.31251H1.75309C1.37167 5.31251 1.06247 5.62172 1.06247 6.00314C1.06247 6.38456 1.37167 6.69376 1.75309 6.69376ZM3.78148 12.5568C4.52032 12.5568 5.11927 11.9579 5.11927 11.219C5.11927 10.4802 4.52032 9.88123 3.78148 9.88123C3.04264 9.88123 2.44369 10.4802 2.44369 11.219C2.44369 11.9579 3.04264 12.5568 3.78148 12.5568ZM15.5318 10.4318L6.38482 10.4318C6.04726 9.31398 5.00943 8.49998 3.78148 8.49998C2.27979 8.49998 1.06244 9.71734 1.06244 11.219C1.06244 12.7207 2.27979 13.9381 3.78148 13.9381C5.07912 13.9381 6.16445 13.0291 6.43543 11.8131L15.5318 11.8131C15.9132 11.8131 16.2224 11.5039 16.2224 11.1224C16.2224 10.741 15.9132 10.4318 15.5318 10.4318Z" fill="black"/>
</svg>
